{"title":"Klixen - Oral Sensuality","uid":8945933,"size":1682010101,"categoryP":"porn","categoryS":"movie_clips","magnet":"?xt=urn:btih:eac67f6ffcf650057b77a00b6a998fd2b22daaeb&amp;dn=Klixen+-+Oral+Sensuality&amp;tr=udp%3A%2F%2Ftracker.openbittorrent.com%3A80&amp;tr=udp%3A%2F%2Fopen.demonii.com%3A1337&amp;tr=udp%3A%2F%2Ftracker.coppersurfer.tk%3A6969&amp;tr=udp%3A%2F%2Fexodus.desync.com%3A6969","seeders":2,"leechers":3,"uploader":null,"files":5,"time":1379776366,"description":"New from German lady: a long, slow teasing blowjob with lots of sensual toungue action and some deeper sucking, ending an oozing cumshot that slides down Mr Klixen's shaft. Classic K action.\n\nFormat : Windows Media\nFile size : 912 MiB\nDuration : 15mn 26s\nOverall bit rate mode : Variable\nOverall bit rate : 8 260 Kbps\nMaximum Overall bit rate : 12.2 Mbps\nEncoded date : UTC 2013-08-28 19:52:21.640\n\nVideo\nID : 2\nFormat : VC-1\nFormat profile : MP@HL\nCodec ID : WMV3\nCodec ID/Info : Windows Media Video 9\nCodec ID/Hint : WMV3\nDescription of the codec : Windows Media Video 9\nDuration : 15mn 26s\nBit rate mode : Variable\nBit rate : 8 060 Kbps\nWidth : 1 920 pixels\nHeight : 1 080 pixels\nDisplay aspect ratio : 16:9\nFrame rate : 25.000 fps\nBit depth : 8 bits\nCompression mode : Lossy\nBits/(Pixel*Frame) : 0.155\nStream size : 890 MiB (98%)\nLanguage : German (AT)\n\nAudio\nID : 1\nFormat : WMA\nFormat version : Version 2\nCodec ID : 161\nCodec ID/Info : Windows Media Audio\nDescription of the codec : Windows Media Audio 9.2 - 160 kbps, 44 kHz, stereo (A/V) 1-pass CBR\nDuration : 15mn 26s\nBit rate mode : Constant\nBit rate : 160 Kbps\nChannel(s) : 2 channels\nSampling rate : 44.1 KHz\nBit depth : 16 bits\nStream size : 17.7 MiB (2%)\nLanguage : German (AT)\n\n\n\nFormat : Windows Media\nFile size : 690 MiB\nDuration : 11mn 36s\nOverall bit rate mode : Variable\nOverall bit rate : 8 321 Kbps\nMaximum Overall bit rate : 9 913 Kbps\nEncoded date : UTC 2013-08-29 18:59:57.870\n\nVideo\nID : 2\nFormat : VC-1\nFormat profile : MP@HL\nCodec ID : WMV3\nCodec ID/Info : Windows Media Video 9\nCodec ID/Hint : WMV3\nDescription of the codec : Windows Media Video 9\nDuration : 11mn 36s\nBit rate mode : Variable\nBit rate : 8 121 Kbps\nWidth : 1 920 pixels\nHeight : 1 080 pixels\nDisplay aspect ratio : 16:9\nFrame rate : 25.000 fps\nBit depth : 8 bits\nCompression mode : Lossy\nBits/(Pixel*Frame) : 0.157\nStream size : 674 MiB (98%)\nLanguage : German (AT)\n\nAudio\nID : 1\nFormat : WMA\nFormat version : Version 2\nCodec ID : 161\nCodec ID/Info : Windows Media Audio\nDescription of the codec : Windows Media Audio 9.2 - 160 kbps, 44 kHz, stereo (A/V) 1-pass CBR\nDuration : 11mn 36s\nBit rate mode : Constant\nBit rate : 160 Kbps\nChannel(s) : 2 channels\nSampling rate : 44.1 KHz\nBit depth : 16 bits\nStream size : 13.3 MiB (2%)\nLanguage : German (AT)","torrent":{"xt":"urn:btih:eac67f6ffcf650057b77a00b6a998fd2b22daaeb","amp;dn":"Klixen+-+Oral+Sensuality","amp;tr":["udp%3A%2F%2Ftracker.openbittorrent.com%3A80","udp%3A%2F%2Fopen.demonii.com%3A1337","udp%3A%2F%2Ftracker.coppersurfer.tk%3A6969","udp%3A%2F%2Fexodus.desync.com%3A6969"],"infoHash":"eac67f6ffcf650057b77a00b6a998fd2b22daaeb","infoHashBuffer":{"type":"Buffer","data":[234,198,127,111,252,246,80,5,123,119,160,11,106,153,143,210,178,45,170,235]},"announce":[],"urlList":[]}}